<svg xmlns="http://www.w3.org/2000/svg" viewBox="-0.244 -0.228 60 24" height="24" width="60"><style><![CDATA[.B{font-family:Arial}.C{word-spacing:0}.D{writing-mode:lr-tb}.E{text-anchor:middle}.F{fill:#bce9f0}.G{font-size:4.19371414px}.H{font-size:4.12367868px}.I{font-size:4.1209259px}]]></style><path transform="matrix(1 0 -.61053019 .79199298 0 0)" d="M17.16622543 1.6096586h41.7569046v23.1154976h-41.7569046z" fill="#6c5232" stroke="#2c4a32" stroke-width="2.24734259"/><path transform="matrix(1 0 -.63414455 .77321452 0 0)" d="M50.15439606 20.3163376h9.40761948v5.01387644h-9.40761948z" fill="#dbebed" stroke="#2a4b34" stroke-width=".85964185" stroke-miterlimit="2"/><g stroke="#a2f6b3" fill="none" stroke-width=".24999999"><path d="M33.62850027 19.71241577L49.38476278.96531M11.33310334 19.71241577L27.08936585.96531m-4.70809707 18.74710587L38.1375313.96531"/><path d="M47.14272074 15.44291887H4.6729756m46.45106602-4.8775582H8.65429647m46.252-4.8775582H12.4365513"/></g><text xml:space="preserve" x="44.388535" y="19.017479" transform="matrix(.99987525 0 -.83974328 1.0001248 0 0)" font-size="4.12348318" letter-spacing="0" class="B C D E F"><tspan x="44.388535" y="19.017479">6</tspan></text><text xml:space="preserve" x="22.916029" y="14.446898" transform="matrix(.99992277 0 -.83978318 1.0000772 0 0)" font-size="4.26616955" letter-spacing="0" class="B C D E F"><tspan x="22.916029" y="14.446898">7</tspan></text><text xml:space="preserve" x="54.61657" y="4.6503258" transform="matrix(.99987605 0 -.83974397 1.000124 0 0)" font-size="4.12348652" letter-spacing="0" class="B C D E F"><tspan x="54.61657" y="4.6503258">8</tspan></text><text xml:space="preserve" x="33.055965" y="9.372839" transform="matrix(.99992277 0 -.83978321 1.0000772 0 0)" letter-spacing="0" class="B C D E F H"><tspan x="33.055965" y="9.372839">9</tspan></text><text transform="matrix(.99992277 0 -.83978321 1.0000772 0 0)" y="9.4231768" x="54.391956" xml:space="preserve" letter-spacing="0" class="B C D E F G"><tspan y="9.4231768" x="54.391956">1</tspan></text><text transform="matrix(.99992277 0 -.83978321 1.0000772 0 0)" y="14.446898" x="33.521103" xml:space="preserve" letter-spacing="0" class="B C D E F G"><tspan y="14.446898" x="33.521103">2</tspan></text><text transform="matrix(.99992277 0 -.83978318 1.0000772 0 0)" y="14.394581" x="55.056431" xml:space="preserve" letter-spacing="0" class="B C D E F I"><tspan y="14.394581" x="55.056431">3</tspan></text><text transform="matrix(.99992277 0 -.83978318 1.0000772 0 0)" y="4.7008801" x="22.493763" xml:space="preserve" font-size="4.21087837" letter-spacing="0" class="B C D E F"><tspan y="4.7008801" x="22.493763">4</tspan></text><text transform="matrix(.99992277 0 -.83978318 1.0000772 0 0)" y="9.3719492" x="44.326359" xml:space="preserve" font-size="4.19656515" letter-spacing="0" class="B C D E F"><tspan y="9.3719492" x="44.326359">5</tspan></text><text xml:space="preserve" x="32.913509" y="4.650692" transform="matrix(.99995496 0 -.83906178 1.000045 0 0)" font-size="4.12381172" letter-spacing="0" class="B C D E F"><tspan x="32.913509" y="4.650692">10</tspan></text><text xml:space="preserve" x="22.998863" y="19.06872" transform="matrix(.99992277 0 -.83903484 1.0000772 0 0)" letter-spacing="0" class="B C D E F G"><tspan x="22.998863" y="19.06872">11</tspan></text><text xml:space="preserve" x="22.094126" y="9.4231768" transform="matrix(.99992277 0 -.83903484 1.0000772 0 0)" letter-spacing="0" class="B C D E F G"><tspan x="22.094126" y="9.4231768">12</tspan></text><text xml:space="preserve" x="33.125439" y="19.016401" transform="matrix(.99992277 0 -.83903484 1.0000772 0 0)" letter-spacing="0" class="B C D E F I"><tspan x="33.125439" y="19.016401">13</tspan></text><text xml:space="preserve" x="44.395538" y="14.446354" transform="matrix(.99988505 0 -.83900322 1.000115 0 0)" font-size="4.19355583" letter-spacing="0" class="B C D E F"><tspan x="44.395538" y="14.446354">14</tspan></text><text xml:space="preserve" x="43.884312" y="4.6505427" transform="matrix(.99992277 0 -.83903484 1.0000772 0 0)" letter-spacing="0" class="B C D E F H"><tspan x="43.884312" y="4.6505427">15</tspan></text><g fill="#6c5232" stroke="#2a4b34"><path d="M1.00594318 20.46954536H43.5033301v2.2180047H1.00594318z"/><path d="M59.183615 1.0136957l.0035 2.364127L43.923853 22.59282l-.135162-3.02602z" stroke-width=".49999997"/></g></svg>